<svg xmlns="http://www.w3.org/2000/svg" xmlns:xlink="http://www.w3.org/1999/xlink" width="160" height="37" viewBox="0 0 160 37">
  <defs>
    <polygon id="traackr-logo-rose-a" points="147.769 12.241 158.712 12.241 158.712 28.613 147.769 28.613"/>
  </defs>
  <g fill="none" fill-rule="evenodd">
    <path fill="#FFCFBE" d="M44.1139454.939423941C43.39681.187717779 42.0381943.0177029223 40.6797455 0 39.3211297.0177029223 37.9625139.187717779 37.2457126.939423941 36.4940064 1.65639229 36.3239916 3.01484106 36.3061216 4.37345684 36.3239916 5.73207262 36.4940064 7.0906884 37.2457126 7.80765675 37.9625139 8.55919591 39.3211297 8.72921076 40.6795785 8.74691369 42.0381943 8.72921076 43.396643 8.55919591 44.1139454 7.80765675 44.8653175 7.09052139 45.0353324 5.73190561 45.0532023 4.37345684 45.0353324 3.01484106 44.8654845 1.65639229 44.1139454.939423941M32.0119438.939423941C31.2946414.187717779 29.9361927.0177029223 28.5775769 0 27.2191281.0177029223 25.8605123.187717779 25.143544.939423941 24.3918378 1.65639229 24.221823 3.01484106 24.2041201 4.37345684 24.221823 5.73207262 24.3920048 7.0906884 25.143544 7.80765675 25.8605123 8.55919591 27.2189611 8.72921076 28.5775769 8.74691369 29.9360257 8.72921076 31.2946414 8.55919591 32.0119438 7.80765675 32.763316 7.09052139 32.9333308 5.73190561 32.9512008 4.37345684 32.9333308 3.01484106 32.763316 1.65639229 32.0119438.939423941M19.909842.939423941C19.1927067.187717779 17.8340909.0177029223 16.4756421 0 15.1170263.0177029223 13.7584106.187717779 13.0416092.939423941 12.2899031 1.65639229 12.1198882 3.01484106 12.1020183 4.37345684 12.1198882 5.73207262 12.2899031 7.0906884 13.0416092 7.80765675 13.7584106 8.55919591 15.1170263 8.72921076 16.4754751 8.74691369 17.8340909 8.72921076 19.1925397 8.55919591 19.909842 7.80765675 20.6612142 7.09052139 20.831229 5.73190561 20.849099 4.37345684 20.831229 3.01484106 20.6613812 1.65639229 19.909842.939423941M19.909842 13.0414255C19.1927067 12.2898864 17.8340909 12.1197045 16.4756421 12.1020016 15.1170263 12.1198715 13.7584106 12.2898864 13.0416092 13.0414255 12.2899031 13.7583939 12.1198882 15.1170096 12.1020183 16.4754584 12.1198882 17.8340742 12.2899031 19.192523 13.0416092 19.9098253 13.7584106 20.6611975 15.1170263 20.8312123 16.4754751 20.8489153 17.8340909 20.8312123 19.1925397 20.6611975 19.909842 19.9098253 20.6612142 19.192523 20.831229 17.8339072 20.849099 16.4754584 20.831229 15.1170096 20.6613812 13.7583939 19.909842 13.0414255M7.80782376.939423941C7.09052139.187717779 5.73207262.0177029223 4.37345684 0 3.01500807.0177029223 1.65639229.187717779.939423941.939423941.187717779 1.65639229.0177029223 3.01484106 4.35207426e-14 4.37345684.0177029223 5.73207262.187884788 7.0906884.939423941 7.80765675 1.65639229 8.55919591 3.01484106 8.72921076 4.37345684 8.74691369 5.73190561 8.72921076 7.09052139 8.55919591 7.80782376 7.80765675 8.55919591 7.09052139 8.72921076 5.73190561 8.74708069 4.37345684 8.72921076 3.01484106 8.55919591 1.65639229 7.80782376.939423941M32.9511172 16.7739197C32.9511172 17.7502525 32.9574636 19.7029183 32.9511172 20.6792511 32.9420988 22.0378669 32.7632325 23.3963157 32.0118603 24.113618 31.294725 24.8649902 29.9361092 25.034838 28.5776604 25.052708 27.2190446 25.034838 25.8604288 24.8649902 25.1434605 24.113618 24.3919213 23.3963157 24.213055 22.0378669 24.2040366 20.6792511 24.1973562 19.6706856 24.1973562 17.6537215 24.2040366 16.645156 24.213055 15.2865402 24.3919213 13.9280914 25.1434605 13.2111231 25.8604288 12.4595839 27.2190446 12.289569 28.5776604 12.2716991 29.9361092 12.289569 31.294725 12.4595839 32.0118603 13.2111231 32.7632325 13.9280914 32.9511172 15.2865402 32.9511172 16.645156M20.8500843 28.7061569C20.8500843 29.6826568 20.8565977 31.6351555 20.8500843 32.6116554 20.8412329 33.9702711 20.6621995 35.3285529 19.9108274 36.0458553 19.193692 36.7972274 17.8350762 36.9672423 16.4766275 36.9849452 15.1180117 36.9672423 13.7593959 36.7972274 13.0425946 36.0458553 12.2908884 35.3285529 12.1120221 33.9702711 12.1030036 32.6116554 12.0964903 31.6030898 12.0964903 29.5861257 12.1030036 28.5775602 12.1120221 27.2189444 12.2908884 25.8604956 13.0425946 25.1435273 13.7595629 24.3918211 15.1180117 24.2218063 16.4766275 24.2041034 17.8350762 24.2218063 19.193692 24.3918211 19.9108274 25.1435273 20.6623665 25.8604956 20.8500843 27.2189444 20.8500843 28.5773932M72.8073094 16.972827C72.3102915 16.8450654 71.8461744 16.8133337 71.4149579 16.8133337 68.4964808 16.8133337 67.5345107 19.1152146 67.5345107 20.426901L67.5345107 28.6126654 62.0963734 28.6126654 62.0963734 12.6887198 67.3354364 12.6887198 67.3354364 14.9906008 67.4020728 14.9906008C68.23077 13.3599278 69.8560987 12.2409695 71.8790751 12.2409695 72.3102915 12.2409695 72.7744087 12.2728682 73.0394515 12.3688982L72.8073094 16.972827zM84.9766823 21.6735207L84.280423 21.6735207C81.8921986 21.6735207 79.2060307 21.9616107 79.2060307 23.847807 79.2060307 25.0632963 80.4661113 25.4783129 81.5606863 25.4783129 83.7827371 25.4783129 84.9766823 24.231593 84.9766823 22.217134L84.9766823 21.6735207zM74.9942383 14.8629059C76.9510792 13.0719046 79.6703149 12.176905 82.3564828 12.176905 87.8949923 12.176905 89.9508694 14.7986076 89.9508694 20.5862941L89.9508694 28.6127322 84.9766823 28.6127322 84.9766823 26.9177609 84.8771451 26.9177609C84.0477799 28.2286122 82.1909772 28.9960172 80.2010685 28.9960172 77.5478013 28.9960172 74.1982748 27.7486292 74.1982748 24.0079683 74.1982748 19.4032044 80.0019941 18.6359665 84.8105087 18.6359665L84.8105087 18.3804432C84.8105087 16.8132335 83.5176943 16.0777272 81.8263972 16.0777272 80.267705 16.0777272 78.7748142 16.8132335 77.7468757 17.7084001L74.9942383 14.8629059zM103.294815 21.6735207L102.598555 21.6735207C100.210331 21.6735207 97.5241629 21.9616107 97.5241629 23.847807 97.5241629 25.0632963 98.7840765 25.4783129 99.8786516 25.4783129 102.100702 25.4783129 103.294815 24.231593 103.294815 22.217134L103.294815 21.6735207zM93.3122035 14.8629059C95.2692114 13.0719046 97.9884471 12.176905 100.674615 12.176905 106.213125 12.176905 108.268835 14.7986076 108.268835 20.5862941L108.268835 28.6127322 103.294815 28.6127322 103.294815 26.9177609 103.19511 26.9177609C102.365745 28.2286122 100.508942 28.9960172 98.5190337 28.9960172 95.8659335 28.9960172 92.516407 27.7486292 92.516407 24.0079683 92.516407 19.4032044 98.3199593 18.6359665 103.128641 18.6359665L103.128641 18.3804432C103.128641 16.8132335 101.83566 16.0777272 100.144529 16.0777272 98.5858372 16.0777272 97.0929464 16.8132335 96.0650079 17.7084001L93.3122035 14.8629059zM122.958937 17.8361618C122.329314 17.0687568 121.168102 16.5577102 120.074529 16.5577102 117.818743 16.5577102 116.260051 18.4758051 116.260051 20.6505924 116.260051 22.8566104 117.752774 24.711075 120.140331 24.711075 121.234906 24.711075 122.428851 24.2952233 123.09221 23.5279853L126.110057 27.0772542C124.749771 28.3565409 122.428851 29.1236118 120.007726 29.1236118 114.800896 29.1236118 110.75511 25.9267313 110.75511 20.6505924 110.75511 15.4382509 114.800896 12.176905 119.974825 12.176905 122.362382 12.176905 124.783507 13.040173 126.110057 14.3192926L122.958937 17.8361618z"/>
    <polygon fill="#FFCFBE" points="146.006 28.613 139.274 28.613 133.868 21.338 133.769 21.338 133.769 28.613 128.297 28.613 128.297 5.969 133.769 5.969 133.769 19.515 133.868 19.515 139.141 12.689 145.741 12.689 139.373 20.25"/>
    <path fill="#FFCFBE" d="M58.5597972,16.6212737 L58.5597972,12.6885528 L54.679517,12.6885528 L54.679517,8.4996406 L50.3675194,8.4996406 C50.360505,8.49980761 50.3526556,8.50030864 50.3453072,8.50047565 C50.3456412,8.51533942 50.3461423,8.53003619 50.3463093,8.54489996 C50.3284393,9.90351574 50.1584245,11.2619645 49.4070523,11.9792669 C48.8221879,12.5920218 47.8106162,12.8179846 46.7205504,12.8902993 L46.7205504,16.6212737 L49.3738176,16.6212737 L49.3738176,23.3365266 C49.3738176,26.7575328 50.8329726,28.9959504 55.2433384,28.9959504 C56.4045499,28.9959504 57.6315628,28.7719917 58.3944586,28.5166354 L58.3278221,24.6792765 C57.9295063,24.8387698 57.2668158,24.9347998 56.7362292,24.9347998 C55.17737,24.9347998 54.679517,24.1999615 54.679517,22.6970502 L54.679517,16.6212737 L58.5597972,16.6212737 Z"/>
    <mask id="traackr-logo-rose-b" fill="#fff">
      <use xlink:href="#traackr-logo-rose-a"/>
    </mask>
    <path fill="#FFCFBE" d="M158.480251,16.972827 C157.983066,16.8450654 157.518949,16.8133337 157.087732,16.8133337 C154.169422,16.8133337 153.207452,19.1152146 153.207452,20.426901 L153.207452,28.6126654 L147.769148,28.6126654 L147.769148,12.6887198 L153.008211,12.6887198 L153.008211,14.9906008 L153.075014,14.9906008 C153.903712,13.3599278 155.52904,12.2409695 157.55185,12.2409695 C157.983066,12.2409695 158.44735,12.2728682 158.712393,12.3688982 L158.480251,16.972827 Z" mask="url(#traackr-logo-rose-b)"/>
  </g>
</svg>
